<svg id="Livello_1" data-name="Livello 1" xmlns="http://www.w3.org/2000/svg" viewBox="0 0 1366 768"><defs><style>.cls-1{fill:#f06;}</style></defs><path class="cls-1" d="M326,54.82c-6-25.48-6.27-53.33,6.68-71.57,13.23-18.24,39.69-26.88,63.09-33s44.14-9.61,66.56-9.47,47.07,3.62,71.58,16.15c24.5,12.25,49.15,33.56,48.18,55.42-1,22.14-27.44,45-41.36,75.06s-15.6,68-32.87,82.72-51,7-78.95-4-50.69-25.35-68-44S332,80.31,326,54.82Z"/><path class="cls-1" d="M1135.26,228.14c-27-16.95-51.19-40.92-55.73-68-4.31-27.36,11-57.87,25.83-83.54,15.07-25.66,29.66-46.73,49-66.1,19.38-19.61,43.54-37.77,75.35-48.18,31.57-10.66,71-13.56,89,6.29,18.18,20.1,15.07,63,28.94,101.21,13.87,38.5,45,72.65,42.81,100.49-2.15,28.09-37.79,50.37-71.27,65.14-33.73,14.77-65.3,22-96.16,20.82S1162.29,245.09,1135.26,228.14Z"/><path class="cls-1" d="M1389.67,702.58c-17,27-40.92,51.19-68,55.73-27.36,4.31-57.87-11-83.53-25.83-25.67-15.07-46.74-29.66-66.11-49-19.61-19.37-37.77-43.53-48.18-75.34-10.66-31.57-13.56-71,6.29-89,20.1-18.18,63-15.07,101.22-28.94,38.5-13.87,72.64-45,100.48-42.81,28.09,2.15,50.37,37.79,65.14,71.27,14.77,33.73,22,65.3,20.82,96.16S1406.62,675.55,1389.67,702.58Z"/><path class="cls-1" d="M746.77,622.1c32,20.44,76.88,25.49,97.92,48.35,21,22.66,18,63.12,5.26,99.54-12.75,36.61-35.41,69.39-66,84-30.35,14.57-68.38,11.33-103.18,6.68-34.59-4.66-66.15-10.32-97.1-24.68-31.16-14.57-61.91-37.43-73.24-68-11.32-30.34-2.83-68,10.32-102.77,13.15-35,31-67,57.86-89,27.11-22,62.92-34.39,90.23-22.66C696.4,565.46,715,601.47,746.77,622.1Z"/><path class="cls-1" d="M33.42,512.53C7.81,520.1-23,512.53-51,499c-28.2-13.7-53.66-33.36-63.65-58.81s-4.35-56.55,2.58-86c6.77-29.65,14.5-57.36,32.55-74.44,17.88-16.91,45.92-23,75.24-29.16,29.16-6,59.45-12.08,92.32-6.93s68.64,21.59,71.38,47.21c2.58,25.78-27.55,60.74-42.86,90.23s-16,53.65-26.42,77C79.66,481.76,59,504.64,33.42,512.53Z"/></svg>