<svg xmlns="http://www.w3.org/2000/svg" viewBox="0 0 482.73 418.22"><defs><style>.cls-1{fill:#FFF;}</style></defs><g id="Livello_2" data-name="Livello 2"><g id="Livello_1-2" data-name="Livello 1"><path class="cls-1" d="M219.7,37.17,0,418.1H439.59Zm-1.07,76.1L373.19,379.72H65.5Q142.1,246.43,218.63,113.27Z"/><path class="cls-1" d="M241.46,0,482.73,417.54a18.54,18.54,0,0,1-5.5.59c-8.08,0-16.15,0-24.23.09-3.13,0-5-1.6-6.45-4.15q-10.77-18.82-21.63-37.6L365.36,273.31q-44.5-77.1-89-154.21Q252,77,227.56,34.92c-2.47-4.24-2.46-7.82.2-12,4.51-7.07,8.56-14.43,12.81-21.66C240.77.94,241,.63,241.46,0Z"/></g></g></svg>